<svg width="14" height="18" viewBox="0 0 14 18" fill="none" xmlns="http://www.w3.org/2000/svg">
<path d="M11.1401 11.6065C10.8637 11.67 10.5773 11.6771 10.2981 11.6275C9.93076 11.5715 9.57302 11.4648 9.23506 11.3105C9.74558 11.212 10.2725 11.2412 10.7691 11.3955C10.9013 11.45 11.0259 11.5213 11.1401 11.6075M7.63206 11.0305L7.55606 11.0505C7.38706 11.0965 7.22206 11.1415 7.06406 11.1815L6.85006 11.2355C6.42006 11.3445 5.98006 11.4555 5.55006 11.5885C5.71506 11.1885 5.86906 10.7885 6.01906 10.3945C6.13006 10.1035 6.24406 9.8055 6.36106 9.5115C6.42039 9.61016 6.48239 9.71016 6.54706 9.8115C6.84988 10.269 7.2166 10.6808 7.63606 11.0345M6.53806 6.5395C6.55394 7.02383 6.47478 7.50659 6.30506 7.9605C6.07697 7.42636 6.0623 6.82512 6.26406 6.2805C6.30084 6.19674 6.34932 6.11863 6.40806 6.0485C6.49041 6.20075 6.53531 6.37044 6.53906 6.5435M4.29206 12.7605C4.18406 12.9535 4.07506 13.1335 3.96206 13.3035C3.69006 13.7125 3.24606 14.1515 3.01806 14.1515C3.00067 14.1513 2.98357 14.147 2.96813 14.139C2.95268 14.131 2.9393 14.1195 2.92906 14.1055C2.91903 14.0966 2.91127 14.0854 2.9064 14.0729C2.90154 14.0603 2.8997 14.0469 2.90106 14.0335C2.99282 13.7638 3.16791 13.5302 3.40106 13.3665C3.67761 13.1317 3.97947 12.9284 4.30106 12.7605M11.8761 11.6245C11.8411 11.1245 10.9971 10.8015 10.9891 10.7985C10.6403 10.6792 10.2736 10.621 9.90506 10.6265C9.40098 10.6349 8.8996 10.7021 8.41106 10.8265C7.88589 10.4561 7.43392 9.99161 7.07806 9.4565C6.92706 9.2255 6.79006 8.9955 6.67206 8.7705C7.01208 8.06199 7.18323 7.2843 7.17206 6.4985C7.13406 5.8295 6.83206 5.3805 6.42206 5.3805C6.14106 5.3805 5.89806 5.5885 5.70106 6.0005C5.53357 6.45648 5.47123 6.9444 5.51867 7.42784C5.56611 7.91128 5.72213 8.37777 5.97506 8.7925C5.78306 9.2435 5.60406 9.7115 5.43206 10.1645C5.21706 10.7275 4.99506 11.3085 4.74606 11.8645C4.10747 12.1053 3.51412 12.4521 2.99106 12.8905C2.62142 13.1584 2.36645 13.5558 2.27706 14.0035C2.27117 14.1021 2.28592 14.2009 2.32036 14.2936C2.35479 14.3862 2.40816 14.4706 2.47706 14.5415C2.54626 14.6176 2.63055 14.6784 2.72456 14.72C2.81857 14.7617 2.92023 14.7833 3.02306 14.7835C3.70806 14.7835 4.36706 13.8425 4.49206 13.6545C4.76218 13.2424 5.00214 12.8112 5.21006 12.3645C5.79106 12.1545 6.41006 11.9975 7.01006 11.8465L7.22506 11.7915C7.38706 11.7505 7.55506 11.7055 7.72506 11.6575C7.89506 11.6095 8.09506 11.5575 8.28606 11.5085C8.86892 11.8881 9.52513 12.141 10.2121 12.2505C10.6672 12.3418 11.1394 12.2941 11.5671 12.1135C11.6605 12.0729 11.7394 12.0046 11.793 11.918C11.8466 11.8313 11.8724 11.7303 11.8671 11.6285M13.1931 15.9405C13.2004 16.0704 13.1803 16.2004 13.134 16.3219C13.0878 16.4435 13.0165 16.554 12.9247 16.6462C12.8329 16.7384 12.7227 16.8102 12.6013 16.8569C12.4799 16.9037 12.35 16.9243 12.2201 16.9175H1.77806C1.64827 16.924 1.51855 16.9031 1.39734 16.8563C1.27613 16.8094 1.16613 16.7376 1.07448 16.6455C0.98282 16.5533 0.911559 16.443 0.865316 16.3215C0.819074 16.2001 0.798884 16.0703 0.806057 15.9405V2.0605C0.798726 1.9307 0.818807 1.80082 0.864993 1.6793C0.911179 1.55778 0.982435 1.44734 1.07412 1.35518C1.16581 1.26302 1.27588 1.1912 1.39716 1.14439C1.51845 1.09758 1.64823 1.07683 1.77806 1.0835H8.83306V3.8445C8.82491 4.0568 8.86072 4.26849 8.93825 4.4663C9.01577 4.66411 9.13333 4.84376 9.28356 4.99399C9.43379 5.14422 9.61345 5.26178 9.81125 5.33931C10.0091 5.41683 10.2208 5.45264 10.4331 5.4445H13.1681L13.1911 5.4675V15.9395L13.1931 15.9405ZM12.5451 4.8155H10.4351C10.3057 4.82258 10.1763 4.80231 10.0553 4.75602C9.93424 4.70972 9.82434 4.63844 9.73273 4.54683C9.64111 4.45521 9.56983 4.34531 9.52354 4.2243C9.47725 4.10328 9.45698 3.97387 9.46406 3.8445V1.7215L12.5451 4.8155ZM13.8211 15.9385V5.2075L9.46406 0.832497V0.812497H9.44306L9.09306 0.460497H1.77806C1.56583 0.452649 1.35427 0.488667 1.1566 0.566297C0.958928 0.643927 0.779397 0.761502 0.629229 0.911669C0.479062 1.06184 0.361488 1.24137 0.283857 1.43904C0.206227 1.63671 0.170209 1.84827 0.178057 2.0605V15.9395C0.170358 16.1517 0.206478 16.3632 0.284161 16.5608C0.361845 16.7584 0.479424 16.9379 0.62956 17.088C0.779697 17.2381 0.959169 17.3557 1.15677 17.4334C1.35438 17.5111 1.56587 17.5472 1.77806 17.5395H12.2221C12.4343 17.5473 12.6458 17.5113 12.8435 17.4337C13.0412 17.3561 13.2207 17.2385 13.3709 17.0883C13.5211 16.9382 13.6386 16.7586 13.7163 16.561C13.7939 16.3633 13.8299 16.1517 13.8221 15.9395" fill="#606060"/>
</svg>
